<?xml version="1.0" encoding="UTF-8" standalone="no"?>
<svg width="424px" height="36px" viewBox="0 0 424 36" version="1.1" xmlns="http://www.w3.org/2000/svg" xmlns:xlink="http://www.w3.org/1999/xlink" xmlns:sketch="http://www.bohemiancoding.com/sketch/ns">
    <!-- Generator: Sketch 3.4.3 (16618) - http://www.bohemiancoding.com/sketch -->
    <title>Slice 1</title>
    <desc>Created with Sketch.</desc>
    <defs></defs>
    <g id="Page-1" stroke="none" stroke-width="1" fill="none" fill-rule="evenodd" sketch:type="MSPage">
        <path d="M0.456,1.016 L7.944,1.016 L7.944,13.688 L22.488,13.688 L22.488,1.016 L29.976,1.016 L29.976,35 L22.488,35 L22.488,20.312 L7.944,20.312 L7.944,35 L0.456,35 L0.456,1.016 Z M40.176,1.016 L63.264,1.016 L63.264,7.928 L47.664,7.928 L47.664,14.264 L62.4,14.264 L62.4,21.176 L47.664,21.176 L47.664,28.088 L64.128,28.088 L64.128,35 L40.176,35 L40.176,1.016 Z M73.416,1.016 L80.904,1.016 L80.904,28.088 L94.776,28.088 L94.776,35 L73.416,35 L73.416,1.016 Z M102.192,1.016 L109.68,1.016 L109.68,28.088 L123.552,28.088 L123.552,35 L102.192,35 L102.192,1.016 Z M128.856,18.008 C128.856,15.2879864 129.311995,12.824011 130.224,10.616 C131.136005,8.40798896 132.407992,6.52800776 134.04,4.976 C135.672008,3.42399224 137.607989,2.23200416 139.848,1.4 C142.088011,0.56799584 144.535987,0.152 147.192,0.152 C149.848013,0.152 152.295989,0.56799584 154.536,1.4 C156.776011,2.23200416 158.711992,3.42399224 160.344,4.976 C161.976008,6.52800776 163.247995,8.40798896 164.16,10.616 C165.072005,12.824011 165.528,15.2879864 165.528,18.008 C165.528,20.7280136 165.072005,23.191989 164.16,25.4 C163.247995,27.608011 161.976008,29.4879922 160.344,31.04 C158.711992,32.5920078 156.776011,33.7839958 154.536,34.616 C152.295989,35.4480042 149.848013,35.864 147.192,35.864 C144.535987,35.864 142.088011,35.4480042 139.848,34.616 C137.607989,33.7839958 135.672008,32.5920078 134.04,31.04 C132.407992,29.4879922 131.136005,27.608011 130.224,25.4 C129.311995,23.191989 128.856,20.7280136 128.856,18.008 L128.856,18.008 Z M136.632,18.008 C136.632,19.608008 136.879998,21.0719934 137.376,22.4 C137.872002,23.7280066 138.583995,24.8799951 139.512,25.856 C140.440005,26.8320049 141.551994,27.5919973 142.848,28.136 C144.144006,28.6800027 145.591992,28.952 147.192,28.952 C148.792008,28.952 150.239994,28.6800027 151.536,28.136 C152.832006,27.5919973 153.943995,26.8320049 154.872,25.856 C155.800005,24.8799951 156.511998,23.7280066 157.008,22.4 C157.504002,21.0719934 157.752,19.608008 157.752,18.008 C157.752,16.4399922 157.504002,14.9840067 157.008,13.64 C156.511998,12.2959933 155.800005,11.1360049 154.872,10.16 C153.943995,9.18399512 152.832006,8.42400272 151.536,7.88 C150.239994,7.33599728 148.792008,7.064 147.192,7.064 C145.591992,7.064 144.144006,7.33599728 142.848,7.88 C141.551994,8.42400272 140.440005,9.18399512 139.512,10.16 C138.583995,11.1360049 137.872002,12.2959933 137.376,13.64 C136.879998,14.9840067 136.632,16.4399922 136.632,18.008 L136.632,18.008 Z M187.272,1.016 L195.432,1.016 L200.856,22.808 L200.952,22.808 L208.056,1.016 L215.016,1.016 L222.072,23.384 L222.168,23.384 L227.88,1.016 L235.464,1.016 L225.528,35 L218.856,35 L211.368,11.48 L211.272,11.48 L203.784,35 L197.352,35 L187.272,1.016 Z M242.112,1.016 L265.2,1.016 L265.2,7.928 L249.6,7.928 L249.6,14.264 L264.336,14.264 L264.336,21.176 L249.6,21.176 L249.6,28.088 L266.064,28.088 L266.064,35 L242.112,35 L242.112,1.016 Z M275.064,1.016 L287.736,1.016 C289.208007,1.016 290.687993,1.11999896 292.176,1.328 C293.664007,1.53600104 294.999994,1.95199688 296.184,2.576 C297.368006,3.20000312 298.327996,4.0719944 299.064,5.192 C299.800004,6.3120056 300.168,7.79999072 300.168,9.656 C300.168,11.5760096 299.632005,13.1679937 298.56,14.432 C297.487995,15.6960063 296.072009,16.5999973 294.312,17.144 L294.312,17.24 C295.432006,17.4000008 296.447995,17.7119977 297.36,18.176 C298.272005,18.6400023 299.055997,19.2319964 299.712,19.952 C300.368003,20.6720036 300.871998,21.5119952 301.224,22.472 C301.576002,23.4320048 301.752,24.4559946 301.752,25.544 C301.752,27.336009 301.368004,28.831994 300.6,30.032 C299.831996,31.232006 298.840006,32.1999963 297.624,32.936 C296.407994,33.6720037 295.040008,34.1999984 293.52,34.52 C291.999992,34.8400016 290.488008,35 288.984,35 L275.064,35 L275.064,1.016 Z M282.552,14.6 L287.976,14.6 C288.552003,14.6 289.119997,14.5360006 289.68,14.408 C290.240003,14.2799994 290.743998,14.0720014 291.192,13.784 C291.640002,13.4959986 291.999999,13.1120024 292.272,12.632 C292.544001,12.1519976 292.68,11.5760034 292.68,10.904 C292.68,10.1999965 292.528002,9.61600232 292.224,9.152 C291.919998,8.68799768 291.528002,8.32800128 291.048,8.072 C290.567998,7.81599872 290.024003,7.63200056 289.416,7.52 C288.807997,7.40799944 288.216003,7.352 287.64,7.352 L282.552,7.352 L282.552,14.6 Z M282.552,28.664 L289.272,28.664 C289.848003,28.664 290.431997,28.6000006 291.024,28.472 C291.616003,28.3439994 292.151998,28.1200016 292.632,27.8 C293.112002,27.4799984 293.503998,27.0640026 293.808,26.552 C294.112002,26.0399974 294.264,25.4160037 294.264,24.68 C294.264,23.879996 294.064002,23.2320025 293.664,22.736 C293.263998,22.2399975 292.760003,21.8640013 292.152,21.608 C291.543997,21.3519987 290.888004,21.1760005 290.184,21.08 C289.479996,20.9839995 288.824003,20.936 288.216,20.936 L282.552,20.936 L282.552,28.664 Z M337.56,1.016 L343.752,1.016 L358.536,35 L350.088,35 L347.16,27.8 L333.96,27.8 L331.128,35 L322.872,35 L337.56,1.016 Z M340.44,10.904 L336.312,21.464 L344.616,21.464 L340.44,10.904 Z M364.944,1.016 L377.568,1.016 C379.328009,1.016 380.991992,1.1759984 382.56,1.496 C384.128008,1.8160016 385.495994,2.36799608 386.664,3.152 C387.832006,3.93600392 388.759997,4.99199336 389.448,6.32 C390.136003,7.64800664 390.48,9.31998992 390.48,11.336 C390.48,13.3200099 390.160003,14.9839933 389.52,16.328 C388.879997,17.6720067 388.000006,18.743996 386.88,19.544 C385.759994,20.344004 384.432008,20.9119983 382.896,21.248 C381.359992,21.5840017 379.696009,21.752 377.904,21.752 L372.432,21.752 L372.432,35 L364.944,35 L364.944,1.016 Z M372.432,15.416 L377.424,15.416 C378.096003,15.416 378.743997,15.3520006 379.368,15.224 C379.992003,15.0959994 380.551998,14.8800015 381.048,14.576 C381.544002,14.2719985 381.943998,13.8560026 382.248,13.328 C382.552002,12.7999974 382.704,12.136004 382.704,11.336 C382.704,10.4719957 382.504002,9.77600264 382.104,9.248 C381.703998,8.71999736 381.192003,8.31200144 380.568,8.024 C379.943997,7.73599856 379.248004,7.5520004 378.48,7.472 C377.711996,7.3919996 376.976004,7.352 376.272,7.352 L372.432,7.352 L372.432,15.416 Z M398.184,1.016 L410.808,1.016 C412.568009,1.016 414.231992,1.1759984 415.8,1.496 C417.368008,1.8160016 418.735994,2.36799608 419.904,3.152 C421.072006,3.93600392 421.999997,4.99199336 422.688,6.32 C423.376003,7.64800664 423.72,9.31998992 423.72,11.336 C423.72,13.3200099 423.400003,14.9839933 422.76,16.328 C422.119997,17.6720067 421.240006,18.743996 420.12,19.544 C418.999994,20.344004 417.672008,20.9119983 416.136,21.248 C414.599992,21.5840017 412.936009,21.752 411.144,21.752 L405.672,21.752 L405.672,35 L398.184,35 L398.184,1.016 Z M405.672,15.416 L410.664,15.416 C411.336003,15.416 411.983997,15.3520006 412.608,15.224 C413.232003,15.0959994 413.791998,14.8800015 414.288,14.576 C414.784002,14.2719985 415.183998,13.8560026 415.488,13.328 C415.792002,12.7999974 415.944,12.136004 415.944,11.336 C415.944,10.4719957 415.744002,9.77600264 415.344,9.248 C414.943998,8.71999736 414.432003,8.31200144 413.808,8.024 C413.183997,7.73599856 412.488004,7.5520004 411.72,7.472 C410.951996,7.3919996 410.216004,7.352 409.512,7.352 L405.672,7.352 L405.672,15.416 Z" id="HELLO-WEB-APP" fill="#E6C24D" sketch:type="MSShapeGroup"></path>
    </g>
</svg>