<?xml version="1.0" encoding="UTF-8" standalone="no"?>
<svg width="149px" height="148px" viewBox="0 0 149 148" version="1.1" xmlns="http://www.w3.org/2000/svg" xmlns:xlink="http://www.w3.org/1999/xlink">
    <!-- Generator: Sketch 43.2 (39069) - http://www.bohemiancoding.com/sketch -->
    <title>icons</title>
    <desc>Created with Sketch.</desc>
    <defs></defs>
    <g id="Page-1" stroke="none" stroke-width="1" fill="none" fill-rule="evenodd">
        <g id="Group-2" transform="translate(-530.000000, -1261.000000)" fill="#498D90">
            <g id="Group">
                <path d="M579.485725,1404.61899 C578.166269,1403.73864 577.717643,1402.81787 580.59668,1402.81787 C605.343798,1402.81787 631.651475,1392.59113 628.985892,1352.14701 C628.901626,1350.86848 628.395912,1350.0339 627.739774,1349.37776 C618.853874,1340.49186 612.787892,1334.24165 604.074661,1325.51714 C602.791358,1324.23218 602.920766,1322.27023 604.191409,1321.12023 C617.453848,1309.11701 632.754296,1295.30008 650.176591,1279.52986 C651.174095,1278.62695 652.234741,1278.65222 653.061523,1279.33887 C653.08128,1279.35528 653.152335,1279.31908 653.272226,1279.23277 C656.82059,1282.33043 660.070611,1285.76124 662.973517,1289.47643 C663.261258,1290.21695 663.05755,1291.03089 662.407902,1291.77836 C652.502457,1303.17528 642.735663,1312.94694 633.125892,1322.74399 C631.81995,1324.07538 631.964886,1325.44119 633.138536,1326.6847 C634.121037,1327.72567 637.405072,1331.38157 638.860505,1333.09666 C639.713494,1334.10182 641.476562,1334.23039 642.177979,1333.58521 C642.879395,1332.94002 653.674111,1321.87758 670.272481,1304.82526 C670.981577,1304.09677 671.787168,1304.39749 672.264564,1304.93093 C676.355294,1314.11859 678.628906,1324.29378 678.628906,1335 C678.628906,1375.86907 645.497978,1409 604.628906,1409 C595.801555,1409 587.335205,1407.45437 579.485725,1404.61899 Z M545.86529,1379.9822 C536.308476,1367.51622 530.628906,1351.92138 530.628906,1335 C530.628906,1294.13093 563.759835,1261 604.628906,1261 C616.675054,1261 628.048932,1263.87833 638.100304,1268.98475 C638.047603,1269.05199 638.029828,1269.08933 638.04834,1269.09558 C639.030396,1269.42725 639.391221,1270.26786 638.503145,1271.07023 C619.344716,1288.37955 600.664399,1305.25176 585.851693,1318.62042 C583.893521,1320.3877 583.954364,1324.02042 585.569014,1325.62751 C591.336475,1331.36797 603.959826,1343.85459 612.722619,1352.60386 C613.730924,1353.61061 614.184869,1354.70307 614.317704,1356.63325 C616.715835,1391.47971 583.778549,1391.36595 564.295898,1390.8501 C560.674141,1390.7542 559.004868,1390.0828 561.235129,1385.693 C564.167632,1379.92099 567.085711,1372.89564 565.707031,1361.4502 C564.295898,1350.13916 567.968262,1346.24072 574.54248,1343.68408 C576.321368,1342.99229 576.112146,1341.68032 575.240454,1340.69103 C573.538276,1338.75922 571.207075,1335.55062 569.672258,1334.02932 C568.576061,1332.94278 567.41653,1332.73376 566.073318,1333.08993 C560.960303,1334.44573 552.127012,1339.30675 552.127012,1351.94298 C552.127012,1358.76655 552.208984,1370.96045 548.212675,1379.03849 C547.494468,1380.49026 546.550355,1380.48243 545.86529,1379.9822 Z" id="Combined-Shape"></path>
            </g>
        </g>
    </g>
</svg>