<?xml version="1.0" encoding="UTF-8" standalone="no"?>
<svg width="150px" height="150px" viewBox="0 0 150 150" version="1.1" xmlns="http://www.w3.org/2000/svg" xmlns:xlink="http://www.w3.org/1999/xlink">
    <!-- Generator: Sketch 43.2 (39069) - http://www.bohemiancoding.com/sketch -->
    <title>icons</title>
    <desc>Created with Sketch.</desc>
    <defs></defs>
    <g id="Page-1" stroke="none" stroke-width="1" fill="none" fill-rule="evenodd">
        <g id="Group-3" transform="translate(-11.523438, -0.044922)">
            <circle id="Oval" fill="#F89F44" cx="85.6289062" cy="74.125" r="74"></circle>
            <path d="M2.93891594,67.8671875 C1.82956322,70.5019002 0.461914062,78.6729184 0.461914062,82.0009766 C0.461914062,82.0009766 20.6776244,114.518232 17.3485434,102.885742 C16.4463799,99.7333984 16.9063975,98.078389 19.8246153,100.931467 C26.8986671,107.847613 34.4751175,115.254943 39.8506835,120.510516 C41.0866149,121.71886 42.5186413,121.795754 43.6478631,120.921095 C45.7927989,119.259697 48.1887847,116.556275 49.5903333,114.130896 C50.4914896,112.571446 50.4339445,111.134225 48.6858209,109.383521 C39.6643972,100.34878 23.394199,84.0545642 17.3485434,77.9999842 C15.8701106,76.519369 15.4221853,74.6770346 17.2193021,72.8784771 C27.2103165,62.8794532 45.659759,44.4152202 51.0848237,38.9858063 C52.0677934,38.0020486 52.3305615,37.0080914 51.1815542,35.6895809 C49.2480479,33.4708411 46.5606842,30.8313095 44.2331119,29.2893593 C42.8209783,28.3538612 41.8212416,28.818348 40.9889612,29.6541926 C34.9464866,35.7225442 26.0253163,44.6819195 18.339769,52.4003802 C15.3633907,55.3895049 15.5366211,53.2866211 15.5366211,50.9204102 C15.5366211,41.9486272 2.93891594,67.8671875 2.93891594,67.8671875 Z M140.383578,40.6374905 C124.789432,63.6056127 95.2712427,107.082016 89.127426,116.131048 C88.0152244,117.769174 86.7960121,117.571775 85.649256,117.107481 C82.9719201,116.023492 79.7970962,113.946413 78.0540648,111.925056 C77.3271176,111.08203 77.051267,110.117777 78.1913916,108.430638 C84.3978171,99.2464669 112.595511,57.5199597 127.542322,35.4019033 C128.066723,34.6259027 128.599764,34.0476167 130.008118,34.2327542 C133.196245,34.6518548 137.176882,36.1661086 139.931592,37.6930882 C141.103959,38.3429501 141.1723,39.4758073 140.383578,40.6374905 Z M74.0722183,35.8091092 C87.2457819,35.8091092 95.8432655,43.5745782 95.8432655,57.7188254 C95.8432655,72.2790799 87.1071128,80.5992253 74.0722183,80.5992253 C60.0666402,80.5992253 52.1625021,72.417749 52.1625021,57.7188254 C52.1625021,43.9905855 61.0373238,35.8091092 74.0722183,35.8091092 Z M64.5626838,57.511772 C64.5626838,64.6378866 68.0108038,69.0055053 74.1024825,69.0055053 C80.1941611,69.0055053 83.5273437,64.408012 83.5273437,57.511772 C83.5273437,50.8454067 79.9642864,46.8226 74.1024825,46.8226 C67.8958665,46.8226 64.5626838,50.8454067 64.5626838,57.511772 Z M132.562684,94.511772 C132.562684,101.637887 136.010804,106.005505 142.102482,106.005505 C148.194161,106.005505 151.527344,101.408012 151.527344,94.511772 C151.527344,87.8454067 147.964286,83.8226 142.102482,83.8226 C135.895866,83.8226 132.562684,87.8454067 132.562684,94.511772 Z M142.369578,71.9510073 C146.651109,71.9510073 150.449264,72.771282 153.625983,74.364225 C155.361342,75.2344079 159.368896,77.6508789 159.671143,74.7792969 C159.949751,72.1322951 164.140625,90.7118309 164.140625,93.8607236 C164.140625,105.515698 138.598007,128.345859 143.793457,120.078369 C145.384949,117.545837 144.970495,116.741123 142.369578,116.741123 C128.364,116.741123 120.459862,108.559647 120.459862,93.8607236 C120.459862,80.1324836 129.334683,71.9510073 142.369578,71.9510073 Z" id="&lt;%" fill="#FFFFFF"></path>
        </g>
    </g>
</svg>